<svg width="24" height="24" viewBox="0 0 24 24" fill="none" xmlns="http://www.w3.org/2000/svg"><path d="M11.97.002s7.073-.316 10.823 6.768H11.368S9.21 6.701 7.37 9.307c-.53 1.094-1.098 2.221-.46 4.442-.92-1.552-4.881-8.425-4.881-8.425S4.823.282 11.969.002" fill="#ef3f36"/><path d="M22.426 17.987s-3.264 6.264-11.293 5.954l5.714-9.859s1.141-1.825-.205-4.718c-.684-1.005-1.382-2.057-3.63-2.617 1.808-.016 9.761 0 9.761 0s2.98 4.933-.347 11.24" fill="#fcd900"/><path d="M1.563 18.036s-3.813-5.948.473-12.722c.988 1.71 5.71 9.859 5.71 9.859s1.02 1.898 4.204 2.18c1.213-.088 2.476-.164 4.09-1.821-.89 1.568-4.88 8.422-4.88 8.422s-5.781.105-9.597-5.918" fill="#61bc5b"/><path d="m11.13 24 1.607-6.682s1.766-.139 3.247-1.757A4696 4696 0 0 1 11.13 24" fill="#5ab055"/><path d="M6.586 12.075c0-2.946 2.397-5.335 5.354-5.335 2.956 0 5.354 2.39 5.354 5.335 0 2.946-2.398 5.335-5.354 5.335-2.957-.003-5.354-2.39-5.354-5.335" fill="#fff"/><path d="M7.482 12.075a4.45 4.45 0 0 1 4.458-4.441c2.46 0 4.458 1.987 4.458 4.441a4.45 4.45 0 0 1-4.458 4.442c-2.46 0-4.458-1.99-4.458-4.442" fill="url(#a)"/><path d="m22.77 6.75-6.617 1.934s-.999-1.46-3.145-1.934c1.862-.01 9.762 0 9.762 0" fill="#eaca05"/><path d="M6.781 13.506C5.851 11.9 2.03 5.323 2.03 5.323l4.9 4.83s-.502 1.032-.313 2.508z" fill="#df3a32"/><defs><linearGradient id="a" x1="11.94" y1="7.696" x2="11.94" y2="16.25" gradientUnits="userSpaceOnUse"><stop stop-color="#86bbe5"/><stop offset="1" stop-color="#1072ba"/></linearGradient></defs></svg>
