<svg width="24" height="24" viewBox="0 0 24 24" fill="none" xmlns="http://www.w3.org/2000/svg"><path d="M22.108 18.459c-2.757 4.245-7.222 5.403-8.987 5.293-10.53-.497-8.931-14.445-2.59-14.39-4.522 2.867 1.653 12.35 10.75 8.656.937-.662 1.102.165.827.44" fill="url(#a)"/><path d="M15.05 11.898c.993-4.52-1.708-7.442-7.111-7.442S0 9.528 0 12.119c0 6.836 6.891 13.948 15.823 11.192-7.388 2.15-11.798-6.396-8.05-11.578 2.537-3.639 6.782-3.749 7.278.165m5.514-8.6h.055Z" fill="url(#b)"/><path d="M.055 11.788C.717-2.987 21.005-3.814 23.927 8.976c.772 5.9-4.741 8.215-9.152 6.34-2.315-1.433 1.434-1.102-.165-5.458C11.964 3.684.772 4.18.055 11.788" fill="url(#c)"/><defs><radialGradient id="a" cx="0" cy="0" r="1" gradientUnits="userSpaceOnUse" gradientTransform="matrix(8.36722 0 0 7.19828 15.534 16.56)"><stop offset=".8" stop-color="#148"/><stop offset="1" stop-color="#137"/></radialGradient><radialGradient id="b" cx="0" cy="0" r="1" gradientUnits="userSpaceOnUse" gradientTransform="matrix(10.3096 0 0 10.3107 10.31 15.67)"><stop offset=".8" stop-color="#38c"/><stop offset="1" stop-color="#269"/></radialGradient><linearGradient id="c" x1=".055" y1="7.976" x2="19.202" y2="22.346" gradientUnits="userSpaceOnUse"><stop offset=".1" stop-color="#5ad"/><stop offset=".6" stop-color="#5c8"/><stop offset=".8" stop-color="#7d5"/></linearGradient></defs></svg>
