<svg width="24" height="24" viewBox="0 0 24 24" fill="none" xmlns="http://www.w3.org/2000/svg"><path d="M11.962 23.616c6.354 0 11.506-5.287 11.506-11.808C23.468 5.288 18.316 0 11.962 0 5.606 0 .455 5.287.455 11.808c0 6.52 5.152 11.808 11.507 11.808" fill="#2179a6"/><path d="M23.367 13.354a3 3 0 0 1-.187.133c.102-.276.194-.63.27-1.04q.018-.317.018-.64c0-2.465-.738-4.754-1.997-6.648-1.14-1.348-2.692-2.505-4.75-3.087 2.214 1.497 3.041 2.768 3.564 3.9-.592-.621-1.605-1.269-2.289-1.323 1.026.783 2.743 3.104 2.56 6.621-.263-.566-.745-1.453-1.087-1.763.369 3.454.046 4.196-.177 5.113-.05-.422-.198-.738-.283-.93 0 0-.04 1.079-.723 2.617-.518 1.164-1.053 1.524-1.29 1.484-.064-.005-.098-.033-.098-.036.017-.15.032-.309-.007-.41 0 0-.218.078-.36.281q-.083.124-.226.237c-.017.014.156-.226.143-.215a3 3 0 0 0-.268.251c-.335.357-.638.753-.795.641.146-.046.264-.237.295-.425-.131.094-.466.35-1.216.465-.307.047-1.613.29-3.35-.6.254-.03.633-.121.922.054-.29-.323-.987-.256-1.487-.418-.436-.142-1.005-.769-1.331-1.086 1.336.336 2.755.094 3.575-.481.83-.582 1.32-1.006 1.761-.906s.733-.352.39-.755c-.34-.402-1.17-.943-2.297-.653-.863.221-1.598.932-2.81.438a3 3 0 0 1-.227-.104c-.077-.04.254.047.172-.002-.233-.088-.657-.287-.762-.363-.017-.013.176.036.156.023-1.15-.698-1.075-1.256-1.075-1.602 0-.276.163-.65.47-.825.166.06.27.116.27.116s-.077-.121-.126-.18l.035-.01c.135.047.617.25.874.46.306-.586.077-1.556.046-1.616v-.003c.065-.298 1.796-1.228 1.925-1.326a1.65 1.65 0 0 0 .476-.587c.083-.154.143-.374.127-.69-.012-.228-.145-.368-1.99-.352-.504.004-.832-.297-1.03-.584l-.109-.175a2 2 0 0 1-.095-.208c.22-.82.955-1.986 1.62-2.342-1.227-.395-2.728.73-3.154 1.335l-.005.005c-1.078-.275-1.993-.208-2.759.044-.568-.283-.929-.876-1.133-1.425-.52.574-.988 1.2-1.39 1.871-.047.38-.071.83-.035 1.349 0 .067.01.132.007.192-.29.41-.48.762-.553.936-.354.708-.717 1.797-1.01 3.488 0 0 .197-.637.59-1.36-.281.884-.502 2.245-.393 4.265l.02.086c.023-.194.086-.653.21-1.234a11.14 11.14 0 0 0 1.473 5.023c.1.175.22.38.363.605 2.104 2.815 5.413 4.632 9.137 4.632 5.843 0 10.666-4.471 11.405-10.261" fill="#195d80"/><path d="M20.683 18.807c.66-1.275 1.557-2.022 2.043-2.904.644-1.174 1.861-4.473.944-7.134.42 1.666.289 3.359-1.053 4.209.434-1.174.706-3.75.259-6.07-.291-1.507-1.211-2.858-1.811-3.28.552.425.996 1.946.984 2.645-1.155-1.996-3.04-3.904-5.89-4.71 2.213 1.497 3.04 2.769 3.564 3.9-.592-.62-1.606-1.268-2.29-1.322 1.026.782 2.744 3.104 2.56 6.62-.262-.566-.744-1.453-1.086-1.763.368 3.455.046 4.196-.178 5.114-.05-.422-.197-.739-.283-.931 0 0-.039 1.08-.723 2.617-.518 1.165-1.053 1.525-1.29 1.484-.064-.004-.098-.033-.098-.035.017-.151.033-.31-.006-.41 0 0-.219.078-.36.28a1 1 0 0 1-.227.238c-.017.013.156-.227.143-.216a3 3 0 0 0-.268.252c-.335.357-.638.753-.795.64.147-.045.264-.237.296-.424-.132.094-.467.35-1.217.465-.307.047-1.612.29-3.349-.6.254-.03.632-.122.921.053-.289-.323-.986-.256-1.487-.418-.435-.141-1.004-.768-1.33-1.085 1.335.336 2.754.093 3.575-.482.829-.581 1.32-1.006 1.76-.905s.734-.353.391-.755c-.341-.403-1.17-.944-2.297-.654-.863.222-1.599.932-2.81.438a3 3 0 0 1-.227-.103c-.078-.04.253.047.171-.003-.233-.088-.656-.287-.761-.362-.017-.013.175.036.155.023-1.15-.698-1.075-1.256-1.075-1.602 0-.277.164-.65.471-.826.166.06.269.116.269.116s-.077-.12-.125-.18l.034-.01c.136.047.617.25.875.46.305-.586.077-1.556.045-1.616l.001-.003c.065-.297 1.795-1.227 1.925-1.325a1.65 1.65 0 0 0 .476-.588c.082-.154.142-.373.126-.69-.012-.228-.144-.368-1.99-.352-.503.004-.832-.297-1.03-.583l-.108-.176a2 2 0 0 1-.095-.208c.22-.82.955-1.986 1.619-2.342-1.227-.395-2.727.73-3.154 1.335l-.004.005c-1.079-.275-1.994-.208-2.76.043-.937-.465-1.312-1.778-1.347-2.34-.528.374-1.014 1.884-1.078 2.185a7.2 7.2 0 0 0-.133 1.951c0 .067.01.132.008.192-.29.41-.48.763-.554.936C.655 8.31.293 9.398 0 11.09c0 0 .197-.637.59-1.359-.29.91-.517 2.323-.384 4.444.006-.07.066-.606.22-1.328.076 1.41.402 3.144 1.473 5.023.816 1.434 2.967 4.764 8.364 6.01a2.6 2.6 0 0 1-.96-.526s2.015.664 3.486.608c-.46-.082-.552-.31-.552-.31s5.23.303 7.038-2.227c-.618.742-2.183.951-2.776.958.902-.85 2.894-.83 5.053-3.009 1.184-1.195 1.312-2.104 1.441-2.954-.198 1.113-1.231 1.78-2.31 2.388" fill="#e78244"/><path d="M11.676 7.516c.083-.21.178-.701-.096-.804a2.6 2.6 0 0 0-.793-.089c.122.032.474.103.566.271.174.322-.238 1.093-.298 1.258.188 0 .538-.43.62-.636" fill="#144f66"/></svg>
